<?xml version="1.0" encoding="UTF-8"?>
<svg width="50px" height="47px" viewBox="0 0 50 47" version="1.1" xmlns="http://www.w3.org/2000/svg" xmlns:xlink="http://www.w3.org/1999/xlink">
    <defs>
        <polygon id="path-1" points="0.692392157 0.498039216 7.05866667 0.498039216 7.05866667 11.8496813 0.692392157 11.8496813"></polygon>
    </defs>
    <g id="Page-1" stroke="none" stroke-width="1" fill="none" fill-rule="evenodd">
        <g id="portal_app_icon_hover">
            <path d="M0,0 L50,0 L50,45 C50,46.1045695 49.1045695,47 48,47 L2,47 C0.8954305,47 1.3527075e-16,46.1045695 0,45 L0,0 Z" id="Rectangle" fill="#DF4335"></path>
            <g id="Page-1" transform="translate(7.000000, 4.000000)">
                <path d="M0.00494117647,20.801098 C0.00494117647,22.1352157 0.465333333,23.110902 1.82847059,22.6481569 C2.89356863,22.2881569 3.51082353,22.0795294 4.54298039,21.7030588 C5.89356863,21.2136471 6.37121569,20.5375686 6.37121569,19.2097255 L6.37670588,6.28188235 C6.37670588,4.95090196 5.9092549,3.96580392 4.55003922,4.43482353 C3.48807843,4.80031373 2.86062745,5.00501961 1.82376471,5.37992157 C0.480235294,5.86462745 0.000235294118,6.54384314 0.000235294118,7.87090196 L0.00494117647,20.801098 Z" id="Fill-1" fill="#283B49"></path>
                <path d="M10.1749804,17.2731765 C10.1749804,18.6072941 10.6353725,19.5829804 11.9992941,19.1210196 C13.0636078,18.7602353 13.6808627,18.5516078 14.7130196,18.1751373 C16.0636078,17.6857255 16.5412549,17.0096471 16.5412549,15.6825882 L16.538902,2.7547451 C16.538902,1.42298039 16.0722353,0.438666667 14.7130196,0.906901961 C13.6510588,1.27239216 13.0306667,1.47788235 11.9938039,1.852 C10.6502745,2.3374902 10.1702745,3.01592157 10.1702745,4.34376471 L10.1749804,17.2731765 Z" id="Fill-3" fill="#283B49"></path>
                <path d="M20.3378039,13.7403137 C20.3378039,15.0752157 20.7981961,16.050902 22.1613333,15.5881569 C23.2264314,15.2273725 23.8436863,15.0195294 24.8758431,14.6430588 C26.2272157,14.1528627 26.7040784,13.4767843 26.7040784,12.1497255 L26.7095686,6.31913725 C26.7095686,4.98737255 26.2421176,4.00305882 24.882902,4.47129412 C23.8209412,4.83678431 23.1934902,5.04305882 22.1566275,5.41639216 C20.8123137,5.90109804 20.333098,6.58109804 20.333098,7.90737255 L20.3378039,13.7403137 Z" id="Fill-5" fill="#283B49"></path>
                <g id="Group-9" transform="translate(29.803922, 0.286275)">
                    <mask id="mask-2" fill="white">
                        <use xlink:href="#path-1"></use>
                    </mask>
                    <g id="Clip-8"></g>
                    <path d="M0.692392157,9.88556863 C0.692392157,11.2196863 1.15278431,12.1953725 2.51592157,11.7334118 C3.58101961,11.3726275 4.19827451,11.164 5.23043137,10.7875294 C6.58101961,10.2981176 7.05866667,9.62203922 7.05866667,8.29498039 L7.05631373,2.46439216 C7.05631373,1.13262745 6.58964706,0.147529412 5.23043137,0.61654902 C4.16847059,0.982039216 3.55513725,1.18752941 2.51827451,1.56164706 C1.1747451,2.04635294 0.694745098,2.72635294 0.694745098,4.05262745 L0.692392157,9.88556863 Z" id="Fill-7" fill="#283B49" mask="url(#mask-2)"></path>
                </g>
                <path d="M6.37137255,37.5381961 C6.37137255,38.8715294 5.91098039,39.8472157 4.54784314,39.3852549 L1.82862745,38.4401569 C0.408235294,37.9397647 0.00509803922,37.2723137 0.00509803922,35.942902 L0.00509803922,29.195451 C0.00509803922,27.8668235 0.408235294,27.1978039 1.82862745,26.6974118 L4.54784314,25.753098 C5.91098039,25.2903529 6.37137255,26.2668235 6.37137255,27.6001569 L6.37137255,37.5381961 Z" id="Fill-10" fill="#283B49"></path>
                <path d="M16.5364706,33.9796863 C16.5364706,35.3145882 16.0768627,36.2902745 14.7129412,35.8275294 L11.9937255,34.8832157 C10.5733333,34.3828235 10.1701961,33.7145882 10.1701961,32.3851765 L10.1701961,25.6377255 C10.1701961,24.309098 10.5733333,23.6408627 11.9937255,23.1404706 L14.7129412,22.1953725 C16.0768627,21.7326275 16.5364706,22.7083137 16.5364706,24.0432157 L16.5364706,33.9796863 Z" id="Fill-12" fill="#283B49"></path>
                <path d="M26.7026667,37.5213333 C26.7026667,38.855451 26.2422745,39.8311373 24.8791373,39.3691765 L22.1599216,38.4240784 C20.7387451,37.9236863 20.3363922,37.255451 20.3363922,35.9268235 L20.3363922,22.1087843 C20.3363922,20.7785882 20.7387451,20.1111373 22.1599216,19.6099608 L24.8791373,18.6648627 C26.2422745,18.202902 26.7026667,19.1785882 26.7026667,20.5134902 L26.7026667,37.5213333 Z" id="Fill-14" fill="#283B49"></path>
                <path d="M36.8627451,33.9475294 C36.8627451,35.2824314 36.4023529,36.2581176 35.0392157,35.7953725 L32.32,34.8510588 C30.8988235,34.3498824 30.4964706,33.6824314 30.4964706,32.3530196 L30.4964706,18.5349804 C30.4964706,17.2055686 30.8988235,16.5373333 32.32,16.0369412 L35.0392157,15.0918431 C36.4023529,14.6298824 36.8627451,15.6055686 36.8627451,16.9396863 L36.8627451,33.9475294 Z" id="Fill-16" fill="#283B49"></path>
            </g>
        </g>
    </g>
</svg>
